<svg xmlns="http://www.w3.org/2000/svg" id="Layer_2" data-name="Layer 2" viewBox="0 0 549.6 182.16"><defs><style>.cls-1{fill:#5372ff;stroke-width:0}</style></defs><g id="Layer_1-2" data-name="Layer 1"><path d="m460.12 0 35.19 35.55-35.55 35.19c-.31-.56-.18-1.02-.18-1.45 0-7.11.02-14.22.07-21.33 0-.86-.17-1.16-1.09-1.05-13.31 1.52-24.81 6.9-34.29 16.37-8.7 8.69-13.91 19.21-15.8 31.38-4.64 29.84 15.43 58.28 45.12 63.9 30.67 5.81 59.92-13.97 66.07-44.69.6-3.02.9-6.08 1.03-9.15.03-.61.13-1.1.59-1.56 6.34-6.31 12.65-12.63 18.97-18.95.14-.14.31-.26.57-.47.91 3.21 1.46 6.38 1.84 9.57 1.68 14.08 0 27.76-5.76 40.72-11.16 25.13-30.29 40.95-57.21 46.47-32.76 6.72-64.95-7.56-82.71-35.98-6.21-9.94-9.97-20.78-11.22-32.45-3.3-30.95 10.64-59.68 37.06-76.22 9.93-6.22 20.78-9.93 32.44-11.23 1.16-.13 2.31-.28 3.47-.33.84-.04 1.11-.35 1.1-1.2-.03-3.78.02-7.57.02-11.35V.14c.09-.05.18-.11.27-.16z" class="cls-1"/><path fill="#00c781" stroke-width="0" d="M459.15 137.93c-.42 0-.82-.16-1.13-.45l-.35-.34c-.22-.21-.4-.38-.58-.55-9.04-9-18.08-18.01-27.11-27.01-.76-.75-1.51-1.51-2.27-2.27-1.51-1.51-3.06-3.07-4.61-4.58-.24-.23-.86-.84-.87-1.78 0-.94.63-1.56.86-1.8 5.98-5.93 10.51-10.47 14.71-14.72.21-.21.84-.85 1.79-.85s1.48.57 1.82.91l.05.05c1.97 1.97 3.94 3.94 5.91 5.92 3.82 3.82 7.76 7.76 11.62 11.67 11.81-11.83 23.63-23.66 35.45-35.48 11.9-11.91 23.8-23.81 35.69-35.72.35-.35 1.09-1.09 2.16-1.09.96 0 1.64.58 2.14 1.08 4.97 5.07 9.95 10.02 14.17 14.18.32.32 1 .99 1 1.98 0 1-.69 1.7-.96 1.96-29.56 29.51-59.1 59.05-87.66 87.61-.08.08-.18.21-.3.37-.08.11-.17.22-.26.34-.29.35-.71.57-1.16.6h-.1z"/><path d="M24.83 137.68c-5.12-.08-9.28-.63-12.48-1.66-3.19-1.02-5.72-2.46-7.57-4.32-1.85-1.85-3.12-4.1-3.78-6.74-.67-2.64-1.01-5.62-1.01-8.93V47.57l17.62-2.84v67.76c0 1.58.12 3 .35 4.26.24 1.26.69 2.33 1.36 3.19.67.87 1.64 1.58 2.9 2.13 1.26.55 2.96.91 5.08 1.06l-2.48 14.54zm27.91-81.36c0 3.23-1.05 5.78-3.13 7.63-2.09 1.85-4.55 2.78-7.39 2.78s-5.3-.93-7.39-2.78c-2.09-1.85-3.13-4.39-3.13-7.63s1.04-5.77 3.13-7.63c2.09-1.85 4.55-2.78 7.39-2.78s5.3.93 7.39 2.78c2.09 1.85 3.13 4.4 3.13 7.63zm-1.66 80.17H33.46v-62.2h17.62v62.2zm9.58-60.07c3-.87 6.86-1.67 11.59-2.42 4.73-.75 9.7-1.12 14.9-1.12s9.68.69 13.19 2.07 6.29 3.33 8.34 5.85c2.05 2.52 3.51 5.52 4.38 8.99.87 3.47 1.3 7.33 1.3 11.59v35.12H96.74v-32.99c0-5.68-.75-9.7-2.25-12.06-1.5-2.36-4.3-3.55-8.4-3.55-1.26 0-2.6.06-4.02.18s-2.68.26-3.78.41v48.01H60.67V76.43zm80.29 20.21c1.73-1.88 3.52-3.84 5.37-5.88s3.64-4.06 5.38-6.06c1.73-2 3.37-3.9 4.9-5.7 1.54-1.8 2.85-3.37 3.96-4.7h20.95c-4.18 4.8-8.26 9.38-12.24 13.75-3.98 4.37-8.34 8.87-13.07 13.51 2.37 2.13 4.81 4.68 7.33 7.64 2.52 2.96 4.97 6.02 7.33 9.18 2.37 3.16 4.53 6.32 6.5 9.47 1.97 3.16 3.62 6.04 4.97 8.65h-20.26c-1.26-2.05-2.7-4.33-4.31-6.82-1.61-2.49-3.32-4.98-5.13-7.47-1.81-2.49-3.72-4.88-5.72-7.17-2.01-2.29-3.99-4.23-5.96-5.81v27.26h-17.62V47.57l17.62-2.84v51.9z" class="cls-1"/><path d="M205.99 72.64c5.2 0 9.54.59 13.01 1.77 3.47 1.18 6.25 2.88 8.34 5.08 2.09 2.21 3.57 4.89 4.43 8.04.87 3.15 1.3 6.66 1.3 10.52v36.66c-2.52.55-6.03 1.2-10.52 1.95-4.49.75-9.93 1.12-16.32 1.12-4.02 0-7.67-.35-10.94-1.06-3.27-.71-6.09-1.87-8.46-3.49a15.972 15.972 0 0 1-5.44-6.33c-1.26-2.6-1.89-5.79-1.89-9.58s.73-6.7 2.19-9.22c1.46-2.52 3.41-4.53 5.85-6.03 2.44-1.5 5.24-2.58 8.4-3.25 3.15-.67 6.42-1 9.81-1 2.29 0 4.32.1 6.09.3 1.77.2 3.21.45 4.32.77v-1.66c0-3-.91-5.4-2.72-7.21-1.81-1.81-4.97-2.72-9.46-2.72-3 0-5.95.22-8.87.65-2.92.43-5.44 1.05-7.57 1.83l-2.25-14.19c1.02-.31 2.31-.65 3.84-1 1.54-.35 3.21-.67 5.03-.95 1.81-.28 3.73-.51 5.74-.71 2.01-.2 4.04-.3 6.09-.3zm1.42 51.56c1.73 0 3.39-.04 4.97-.12 1.58-.08 2.84-.2 3.78-.36v-13.36c-.71-.16-1.77-.31-3.19-.47-1.42-.16-2.72-.24-3.9-.24-1.66 0-3.21.1-4.67.3-1.46.2-2.74.57-3.84 1.12-1.1.55-1.97 1.3-2.6 2.25-.63.95-.95 2.13-.95 3.55 0 2.76.93 4.67 2.78 5.74 1.85 1.06 4.39 1.6 7.63 1.6zm34.64-47.78c3-.87 6.86-1.67 11.59-2.42 4.73-.75 9.7-1.12 14.9-1.12s9.68.69 13.18 2.07c3.51 1.38 6.29 3.33 8.34 5.85 2.05 2.52 3.51 5.52 4.38 8.99.87 3.47 1.3 7.33 1.3 11.59v35.12h-17.62v-32.99c0-5.68-.75-9.7-2.25-12.06-1.5-2.36-4.3-3.55-8.4-3.55-1.26 0-2.6.06-4.02.18s-2.68.26-3.78.41v48.01h-17.62V76.43zm85.03-3.78c5.2 0 9.54.59 13.01 1.77 3.47 1.18 6.25 2.88 8.34 5.08 2.09 2.21 3.57 4.89 4.43 8.04.87 3.15 1.3 6.66 1.3 10.52v36.66c-2.52.55-6.03 1.2-10.52 1.95-4.49.75-9.93 1.12-16.32 1.12-4.02 0-7.67-.35-10.94-1.06-3.27-.71-6.09-1.87-8.45-3.49a15.894 15.894 0 0 1-5.44-6.33c-1.26-2.6-1.89-5.79-1.89-9.58s.73-6.7 2.19-9.22c1.46-2.52 3.41-4.53 5.85-6.03 2.44-1.5 5.24-2.58 8.4-3.25 3.15-.67 6.42-1 9.82-1 2.29 0 4.32.1 6.09.3 1.77.2 3.21.45 4.32.77v-1.66c0-3-.91-5.4-2.72-7.21-1.81-1.81-4.97-2.72-9.46-2.72-3 0-5.95.22-8.87.65-2.92.43-5.44 1.05-7.57 1.83l-2.25-14.19c1.02-.31 2.31-.65 3.84-1 1.54-.35 3.21-.67 5.03-.95 1.81-.28 3.72-.51 5.74-.71 2.01-.2 4.04-.3 6.09-.3zm1.42 51.56c1.73 0 3.39-.04 4.97-.12 1.58-.08 2.84-.2 3.78-.36v-13.36c-.71-.16-1.77-.31-3.19-.47-1.42-.16-2.72-.24-3.9-.24-1.66 0-3.21.1-4.67.3-1.46.2-2.74.57-3.84 1.12-1.11.55-1.97 1.3-2.6 2.25-.63.95-.95 2.13-.95 3.55 0 2.76.93 4.67 2.78 5.74 1.85 1.06 4.39 1.6 7.63 1.6z" class="cls-1"/></g></svg>